<svg xmlns="http://www.w3.org/2000/svg" width="1200" height="630" viewBox="0 0 1200 630" role="img" aria-labelledby="title desc">
  <title id="title">AWS Best Practices Skill preview</title>
  <desc id="desc">Official AWS documentation flows through extraction and validation into agent-ready best-practice files.</desc>
  <rect width="1200" height="630" fill="#f5f7f3"/>
  <rect x="42" y="42" width="1116" height="546" rx="18" fill="#ffffff" stroke="#d9e0dd" stroke-width="2"/>
  <rect x="42" y="42" width="1116" height="92" rx="18" fill="#172126"/>
  <path d="M42 116h1116v28H42z" fill="#172126"/>
  <text x="86" y="100" fill="#ffffff" font-family="Inter, Arial, sans-serif" font-size="34" font-weight="700">AWS Best Practices Skill</text>
  <text x="86" y="190" fill="#215d51" font-family="Inter, Arial, sans-serif" font-size="28" font-weight="700">Source-linked AWS guidance for AI coding agents</text>
  <text x="86" y="232" fill="#5b6870" font-family="Inter, Arial, sans-serif" font-size="21">208 AWS services, 9 general topics, and one file per best-practice surface.</text>

  <g transform="translate(86 298)">
    <rect width="220" height="132" rx="10" fill="#fff7ef" stroke="#e4c2a5" stroke-width="2"/>
    <text x="24" y="48" fill="#172126" font-family="Inter, Arial, sans-serif" font-size="22" font-weight="700">Official AWS</text>
    <text x="24" y="82" fill="#5b6870" font-family="Inter, Arial, sans-serif" font-size="18">docs and</text>
    <text x="24" y="108" fill="#5b6870" font-family="Inter, Arial, sans-serif" font-size="18">Well-Architected</text>
  </g>

  <g transform="translate(360 298)">
    <rect width="220" height="132" rx="10" fill="#f2f5fb" stroke="#b9c7e4" stroke-width="2"/>
    <text x="24" y="48" fill="#172126" font-family="Inter, Arial, sans-serif" font-size="22" font-weight="700">Extract</text>
    <text x="24" y="82" fill="#5b6870" font-family="Inter, Arial, sans-serif" font-size="18">GENERATE.md</text>
    <text x="24" y="108" fill="#5b6870" font-family="Inter, Arial, sans-serif" font-size="18">best practices only</text>
  </g>

  <g transform="translate(634 298)">
    <rect width="220" height="132" rx="10" fill="#edf6f2" stroke="#a6d2c3" stroke-width="2"/>
    <text x="24" y="48" fill="#172126" font-family="Inter, Arial, sans-serif" font-size="22" font-weight="700">Validate</text>
    <text x="24" y="82" fill="#5b6870" font-family="Inter, Arial, sans-serif" font-size="18">scripts/check.py</text>
    <text x="24" y="108" fill="#5b6870" font-family="Inter, Arial, sans-serif" font-size="18">sources and shape</text>
  </g>

  <g transform="translate(908 298)">
    <rect width="204" height="132" rx="10" fill="#f7f8f9" stroke="#c7d0d2" stroke-width="2"/>
    <text x="24" y="48" fill="#172126" font-family="Inter, Arial, sans-serif" font-size="22" font-weight="700">Use</text>
    <text x="24" y="82" fill="#5b6870" font-family="Inter, Arial, sans-serif" font-size="18">services/*.md</text>
    <text x="24" y="108" fill="#5b6870" font-family="Inter, Arial, sans-serif" font-size="18">agent-ready answers</text>
  </g>

  <path d="M318 364h30" stroke="#c86f2d" stroke-width="6" stroke-linecap="round"/>
  <path d="M348 364l-12-10v20z" fill="#c86f2d"/>
  <path d="M592 364h30" stroke="#446aa8" stroke-width="6" stroke-linecap="round"/>
  <path d="M622 364l-12-10v20z" fill="#446aa8"/>
  <path d="M866 364h30" stroke="#2f7d6d" stroke-width="6" stroke-linecap="round"/>
  <path d="M896 364l-12-10v20z" fill="#2f7d6d"/>

  <g transform="translate(86 492)">
    <rect width="222" height="58" rx="8" fill="#172126"/>
    <text x="28" y="38" fill="#ffffff" font-family="Inter, Arial, sans-serif" font-size="24" font-weight="700">208 services</text>
  </g>
  <g transform="translate(330 492)">
    <rect width="242" height="58" rx="8" fill="#2f7d6d"/>
    <text x="28" y="38" fill="#ffffff" font-family="Inter, Arial, sans-serif" font-size="24" font-weight="700">217 files</text>
  </g>
  <g transform="translate(594 492)">
    <rect width="286" height="58" rx="8" fill="#c86f2d"/>
    <text x="28" y="38" fill="#ffffff" font-family="Inter, Arial, sans-serif" font-size="24" font-weight="700">30.51M tokens</text>
  </g>
  <g transform="translate(902 492)">
    <rect width="210" height="58" rx="8" fill="#446aa8"/>
    <text x="28" y="38" fill="#ffffff" font-family="Inter, Arial, sans-serif" font-size="24" font-weight="700">AWS sources</text>
  </g>
</svg>
